<?xml version="1.0" standalone="no"?><!DOCTYPE svg PUBLIC "-//W3C//DTD SVG 1.1//EN" "http://www.w3.org/Graphics/SVG/1.1/DTD/svg11.dtd"><svg t="1760684447085" class="icon" viewBox="0 0 1024 1024" version="1.1" xmlns="http://www.w3.org/2000/svg" p-id="18231" xmlns:xlink="http://www.w3.org/1999/xlink" width="200" height="200"><path d="M1024.342857 146.057143v-49.142857c0-13.257143-10.742857-24-24-24H24.228571c-13.257143 0-24 10.742857-24 24V704c0 13.257143 10.742857 24 24 24H123.428571v200c0 12.571429 10.285714 22.857143 22.857143 22.857143s22.857143-10.285714 22.857143-22.857143V728h685.714286v200c0 12.571429 10.285714 22.857143 22.857143 22.857143s22.857143-10.285714 22.857143-22.857143V728h99.771428c13.257143 0 24-10.742857 24-24V219.428571h-45.714286v462.857143H45.942857V118.628571h932.685714v27.428572h45.714286z" p-id="18232" fill="#82529d"></path><path d="M877.828571 349.942857h-228.571428c-12.571429 0-22.857143-10.285714-22.857143-22.857143s10.285714-22.857143 22.857143-22.857143h228.571428c12.571429 0 22.857143 10.285714 22.857143 22.857143s-10.171429 22.857143-22.857143 22.857143zM877.828571 496.685714h-228.571428c-12.571429 0-22.857143-10.285714-22.857143-22.857143s10.285714-22.857143 22.857143-22.857142h228.571428c12.571429 0 22.857143 10.285714 22.857143 22.857142s-10.171429 22.857143-22.857143 22.857143zM318.285714 594.857143c-107.085714 0-194.285714-87.2-194.285714-194.285714s87.2-194.285714 194.285714-194.285715c26.171429 0 51.657143 5.142857 75.657143 15.314286 11.657143 4.914286 17.028571 18.285714 12.114286 29.942857-4.914286 11.657143-18.285714 17.028571-29.942857 12.114286-18.285714-7.771429-37.714286-11.657143-57.828572-11.657143-81.942857 0-148.571429 66.628571-148.571428 148.571429s66.628571 148.571429 148.571428 148.571428 148.571429-66.628571 148.571429-148.571428c0-26.742857-7.2-52.914286-20.685714-75.771429-6.4-10.857143-2.857143-24.914286 8-31.314286 10.857143-6.4 24.914286-2.857143 31.314285 8 17.714286 29.828571 27.085714 64.114286 27.085715 99.085715 0 107.085714-87.2 194.285714-194.285715 194.285714z" p-id="18233" fill="#82529d"></path><path d="M318.285714 505.714286c-57.942857 0-105.142857-47.2-105.142857-105.142857s47.2-105.142857 105.142857-105.142858c14.171429 0 28 2.742857 40.914286 8.228572 11.657143 4.914286 17.028571 18.285714 12.114286 29.942857-4.914286 11.657143-18.285714 17.028571-29.942857 12.114286-7.314286-3.085714-15.085714-4.685714-23.085715-4.685715-32.8 0-59.428571 26.628571-59.428571 59.428572s26.628571 59.428571 59.428571 59.428571c12.571429 0 22.857143 10.285714 22.857143 22.857143s-10.285714 22.971429-22.857143 22.971429z" p-id="18234" fill="#82529d"></path></svg>