<?xml version="1.0" standalone="no"?><!DOCTYPE svg PUBLIC "-//W3C//DTD SVG 1.1//EN" "http://www.w3.org/Graphics/SVG/1.1/DTD/svg11.dtd"><svg t="1760684378600" class="icon" viewBox="0 0 1024 1024" version="1.1" xmlns="http://www.w3.org/2000/svg" p-id="17050" xmlns:xlink="http://www.w3.org/1999/xlink" width="200" height="200"><path d="M636.416 539.136H504.32c-14.848 0-26.624 12.8-26.624 29.184 0 15.872 11.776 29.184 26.624 29.184h132.096c14.848 0 26.624-12.8 26.624-29.184s-11.776-29.184-26.624-29.184z m0-321.024H235.52c-14.848 0-26.624 13.312-26.624 29.184S221.184 276.48 235.52 276.48h401.408c14.848 0 26.624-13.312 26.624-29.184-0.512-16.384-12.288-29.184-27.136-29.184z m0 160.256H504.32c-14.848 0-26.624 13.312-26.624 29.184s11.776 29.184 26.624 29.184h132.096c14.848 0 26.624-12.8 26.624-29.184 0-15.872-11.776-29.184-26.624-29.184z m246.272-143.36l-57.856-10.752c-5.12-1.024-10.24-1.536-15.36-1.536-3.584 0-7.168 0.512-10.752 1.024v-35.84c0-60.416-45.056-109.056-100.352-109.056H173.568c-55.296 0-100.352 49.152-100.352 109.056v664.576c0 60.416 45.056 109.056 100.352 109.056h524.8c22.016 0 42.496-7.68 58.88-20.992l12.8 2.56c5.12 1.024 10.24 1.536 15.36 1.536 20.48 0 40.96-7.68 56.832-22.528 15.872-14.848 27.136-34.816 30.72-57.344l81.92-518.144c8.192-52.736-24.064-102.912-72.192-111.616z m-137.216 616.96c0 14.848-5.632 27.648-14.848 36.864l-3.584 3.584c-8.192 6.656-17.92 10.24-29.184 10.24H173.568c-26.112 0-47.104-23.04-47.104-51.2V187.392c0-28.16 20.992-51.2 47.104-51.2h524.8c26.112 0 47.104 23.04 47.104 51.2v664.576z m156.672-515.584l-81.92 518.144c-2.56 15.36-12.8 26.624-26.112 30.72 3.072-10.24 4.608-21.504 4.608-32.768V282.624c3.584-1.024 7.168-2.048 10.752-2.048 2.048 0 4.096 0 6.144 0.512l57.856 10.752c18.944 3.584 31.744 23.552 28.672 44.544zM235.52 596.992h166.912c14.848 0 26.624-12.8 26.624-28.672V407.552c0-15.872-12.288-29.184-26.624-29.184H235.52c-14.848 0-26.624 13.312-26.624 29.184V568.32c0 15.872 12.288 28.672 26.624 28.672z m27.136-160.256h113.152v102.912H262.656V436.736z m373.76 263.168H235.52c-14.848 0-26.624 12.8-26.624 29.184 0 15.872 12.288 29.184 26.624 29.184h401.408c14.848 0 26.624-12.8 26.624-29.184-0.512-16.384-12.288-29.184-27.136-29.184z" fill="#36ab60" p-id="17051"></path></svg>