<?xml version="1.0" standalone="no"?><!DOCTYPE svg PUBLIC "-//W3C//DTD SVG 1.1//EN" "http://www.w3.org/Graphics/SVG/1.1/DTD/svg11.dtd"><svg t="1760670494460" class="icon" viewBox="0 0 1024 1024" version="1.1" xmlns="http://www.w3.org/2000/svg" p-id="6179" xmlns:xlink="http://www.w3.org/1999/xlink" width="200" height="200"><path d="M556.7 175.5l123.4 118.9 33.8 21.4v153.7c16.8 2.8 33.1 7.2 48.6 13.1V122.2c0-31.7-25.7-57.4-57.4-57.4H233.7c-31.7 0-57.4 25.7-57.4 57.4V133c2.9-0.4 5.8-0.7 8.8-0.7h345.7l25.9 43.2z" fill="#F43B3B" p-id="6180" data-spm-anchor-id="a313x.search_index.0.i2.264a3a8176O4Nh" class=""></path><path d="M414 723.2c0-142.1 115.2-257.3 257.3-257.3 14.5 0 28.7 1.2 42.5 3.5V315.7L680 294.3 556.7 175.5l-25.9-43.2H185.1c-31.7 0-57.4 25.7-57.4 57.4V834c0 31.7 25.7 57.4 57.4 57.4h291.5c-39-45.1-62.6-103.9-62.6-168.2z" fill="#FF6161" p-id="6181" data-spm-anchor-id="a313x.search_index.0.i1.264a3a8176O4Nh" class=""></path><path d="M530.2 132.3L713.9 316H577.7c-26.9 0-47.5-20.6-47.5-47.5V132.3zM573.1 694.7c-5.8 0-11.2 2.2-15.3 6.3-4.1 4.1-6.3 9.5-6.3 15.3 0 5.8 2.2 11.2 6.3 15.3 4.1 4.1 9.5 6.3 15.3 6.3l83.5 0.1 0.1 83.5c0 5.8 2.2 11.2 6.3 15.3 4.1 4.1 9.5 6.3 15.3 6.3 5.8 0 11.2-2.2 15.3-6.3 4.1-4.1 6.3-9.5 6.3-15.3l-0.1-83.5 83.5 0.1c5.8 0 11.2-2.2 15.3-6.3 4.1-4.1 6.3-9.5 6.3-15.3 0-11.9-9.7-21.6-21.6-21.6l-83.5-0.1-0.1-83.5c0-11.9-9.7-21.6-21.6-21.6-5.8 0-11.2 2.2-15.3 6.3-4.1 4.1-6.3 9.5-6.3 15.3l0.1 83.5-83.5-0.1z" fill="#FFA4A4" p-id="6182"></path><path d="M841.6 548.1C796 502.6 735.4 477.5 671 477.5c-64.5 0-125.1 25.1-170.7 70.6-45.6 45.5-70.7 106-70.7 170.4 0 46.9 13.5 92.4 39.1 131.5 7.7 11.8 23.6 15.1 35.4 7.4 5.7-3.7 9.7-9.5 11.1-16.2 1.4-6.7 0.1-13.5-3.6-19.2-20.1-30.8-30.7-66.6-30.7-103.6 0-104.7 85.3-189.9 190.2-189.9s190.2 85.2 190.2 189.9S776 908.3 671.1 908.3c-34.7 0-68.7-9.4-98.2-27.3-12.1-7.3-27.8-3.4-35.1 8.6-3.5 5.8-4.6 12.7-2.9 19.3 1.6 6.6 5.8 12.2 11.6 15.8 37.5 22.7 80.6 34.6 124.7 34.6 64.5 0 125.1-25.1 170.6-70.6 45.6-45.5 70.7-106 70.7-170.4-0.2-64.1-25.3-124.7-70.9-170.2z" fill="#FFA4A4" p-id="6183" data-spm-anchor-id="a313x.search_index.0.i4.264a3a8176O4Nh" class=""></path><path d="M527.4 404.6H206.1c-1.5 0-2.8-1.2-2.8-2.8v-29.5c0-1.5 1.2-2.8 2.8-2.8h321.3c1.5 0 2.8 1.2 2.8 2.8v29.5c0 1.6-1.3 2.8-2.8 2.8zM436.6 547H202c-1.5 0-2.8-1.2-2.8-2.8v-29.5c0-1.5 1.2-2.8 2.8-2.8h234.6c1.5 0 2.8 1.2 2.8 2.8v29.5c0 1.5-1.2 2.8-2.8 2.8zM383.5 688.3H202c-1.5 0-2.8-1.2-2.8-2.8V656c0-1.5 1.2-2.8 2.8-2.8h181.5c1.5 0 2.8 1.2 2.8 2.8v29.5c0 1.5-1.2 2.8-2.8 2.8z" fill="#FFFFFF" p-id="6184"></path></svg>