<?xml version="1.0" standalone="no"?><!DOCTYPE svg PUBLIC "-//W3C//DTD SVG 1.1//EN" "http://www.w3.org/Graphics/SVG/1.1/DTD/svg11.dtd"><svg t="1760685341647" class="icon" viewBox="0 0 1024 1024" version="1.1" xmlns="http://www.w3.org/2000/svg" p-id="20235" xmlns:xlink="http://www.w3.org/1999/xlink" width="200" height="200"><path d="M724.736 153.6H844.8a76.8 76.8 0 0 1 76.8 76.8v665.6a76.8 76.8 0 0 1-76.8 76.8H179.2a76.8 76.8 0 0 1-76.8-76.8V230.4a76.8 76.8 0 0 1 76.8-76.8h120.064a97.4848 97.4848 0 0 1 79.9488-41.6h11.6992a128.0768 128.0768 0 0 1 242.176 0h11.6992c33.0752 0 62.3104 16.4352 79.9488 41.6zM281.728 204.8H179.2a25.6 25.6 0 0 0-25.6 25.6v665.6a25.6 25.6 0 0 0 25.6 25.6h665.6a25.6 25.6 0 0 0 25.6-25.6V230.4a25.6 25.6 0 0 0-25.6-25.6h-102.528a97.6128 97.6128 0 0 1-97.4848 102.4H379.2128a97.5872 97.5872 0 0 1-97.4592-102.4z m154.3936-63.232l-3.3792 21.632h-53.5296a46.3872 46.3872 0 1 0 0 92.8h265.6a46.4128 46.4128 0 0 0 0-92.8h-53.5552l-3.3792-21.632a76.8256 76.8256 0 0 0-151.7568 0zM307.2 512a25.6 25.6 0 0 1 0-51.2h409.6a25.6 25.6 0 0 1 0 51.2H307.2z m0 128a25.6 25.6 0 0 1 0-51.2h409.6a25.6 25.6 0 0 1 0 51.2H307.2z m0 128a25.6 25.6 0 0 1 0-51.2h409.6a25.6 25.6 0 0 1 0 51.2H307.2z" fill="#17abe3" p-id="20236"></path></svg>